<svg xmlns="http://www.w3.org/2000/svg" viewBox="0 0 120 124">
  <path d="M30 30 C16 24 12 12 14 2 C26 6 36 14 42 26 Z" fill="#f2b632"/>
  <path d="M90 30 C104 24 108 12 106 2 C94 6 84 14 78 26 Z" fill="#f2b632"/>
  <path d="M60 16 L106 28 V62 C106 88 86 106 60 118 C34 106 14 88 14 62 V28 Z" fill="#b3122b" stroke="#f2b632" stroke-width="5" stroke-linejoin="round"/>
  <circle cx="60" cy="66" r="31" fill="#d98a1f"/>
  <circle cx="60" cy="66" r="26" fill="#ffd86b"/>
  <g fill="#8f0d20">
    <circle cx="60" cy="52" r="5"/>
    <circle cx="73" cy="60" r="5"/>
    <circle cx="73" cy="74" r="5"/>
    <circle cx="60" cy="80" r="5"/>
    <circle cx="47" cy="74" r="5"/>
    <circle cx="47" cy="60" r="5"/>
  </g>
</svg>
